<svg aria-hidden="true" style="position: absolute; width: 0; height: 0; overflow: hidden;" version="1.1" xmlns="http://www.w3.org/2000/svg" xmlns:xlink="http://www.w3.org/1999/xlink">
<defs>
<symbol id="icon-vector" viewBox="0 0 21 32">
<path fill="none" stroke="#0061d9" style="stroke: var(--color1, #0061d9)" stroke-linejoin="miter" stroke-linecap="butt" stroke-miterlimit="10" stroke-width="4.5714" d="M2.79 2.286l13.714 13.711-13.714 13.718"></path>
</symbol>
<symbol id="icon-vector-1" viewBox="0 0 21 32">
<path fill="none" stroke="#0061d9" style="stroke: var(--color1, #0061d9)" stroke-linejoin="miter" stroke-linecap="butt" stroke-miterlimit="10" stroke-width="4.5714" d="M18.286 29.714l-13.714-13.711 13.714-13.718"></path>
</symbol>
<symbol id="icon-Group-23" viewBox="0 0 76 32">
<path fill="none" stroke="#0061d9" style="stroke: var(--color1, #0061d9)" stroke-linejoin="miter" stroke-linecap="butt" stroke-miterlimit="4" stroke-width="0.7273" d="M59.636 0.364c8.636 0 15.636 7.001 15.636 15.636s-7.001 15.636-15.636 15.636c-8.636 0-15.636-7.001-15.636-15.636s7.001-15.636 15.636-15.636z"></path>
<path fill="none" stroke="#0061d9" style="stroke: var(--color1, #0061d9)" stroke-linejoin="miter" stroke-linecap="butt" stroke-miterlimit="4" stroke-width="0.7273" d="M16 31.636c-8.636 0-15.636-7.001-15.636-15.636s7.001-15.636 15.636-15.636c8.636 0 15.636 7.001 15.636 15.636s-7.001 15.636-15.636 15.636z"></path>
<path fill="none" stroke="#0061d9" style="stroke: var(--color1, #0061d9)" stroke-linejoin="miter" stroke-linecap="butt" stroke-miterlimit="10" stroke-width="1.4545" d="M57.615 12.364l4.364 4.362-4.364 4.365"></path>
<path fill="none" stroke="#0061d9" style="stroke: var(--color1, #0061d9)" stroke-linejoin="miter" stroke-linecap="butt" stroke-miterlimit="10" stroke-width="1.4545" d="M17.455 21.091l-4.364-4.362 4.364-4.365"></path>
</symbol>
</defs>
</svg>
